<?xml version="1.0" encoding="iso-8859-1"?>
<!-- Generator: Adobe Illustrator 17.1.0, SVG Export Plug-In . SVG Version: 6.00 Build 0)  -->
<!DOCTYPE svg PUBLIC "-//W3C//DTD SVG 1.1//EN" "http://www.w3.org/Graphics/SVG/1.1/DTD/svg11.dtd">
<svg xmlns="http://www.w3.org/2000/svg" xmlns:xlink="http://www.w3.org/1999/xlink" version="1.1" id="Capa_1" x="0px" y="0px" viewBox="0 0 419.154 419.154" style="enable-background:new 0 0 419.154 419.154;" xml:space="preserve" width="512px" height="512px">
<path id="XMLID_186_" d="M190.286,129.228c2.314,4.852,6.621,13.881,18.707,13.881c12.086,0,16.394-9.03,18.708-13.882  c0.287-0.602,6.021-11.923,6.021-11.923c16.036-31.513,25.975-53.646,25.975-66.602C259.696,22.745,236.951,0,208.993,0  S158.29,22.745,158.29,50.702c0,12.953,9.939,35.087,25.977,66.603C184.267,117.305,189.999,128.626,190.286,129.228z M208.993,18  c18.033,0,32.703,14.67,32.703,32.702c0,11.242-16.83,44.315-24.017,58.438c0,0-7.652,15.327-8.166,15.939  c-0.214,0.029-0.828,0.029-1.041,0c-0.515-0.612-8.165-15.939-8.165-15.939c-7.187-14.124-24.019-47.199-24.019-58.438  C176.29,32.67,190.96,18,208.993,18z M167.739,222.813c0,22.749,18.507,41.256,41.256,41.256c22.748,0,41.254-18.507,41.254-41.256  c0-22.748-18.507-41.255-41.254-41.255C186.246,181.558,167.739,200.064,167.739,222.813z M232.249,222.813  c0,12.823-10.432,23.256-23.254,23.256c-12.824,0-23.256-10.433-23.256-23.256c0-12.822,10.433-23.255,23.256-23.255  C221.818,199.558,232.249,209.99,232.249,222.813z M309.635,276.046c-27.958,0-50.703,22.744-50.703,50.701  c0,12.949,9.939,35.085,25.976,66.603c0,0,5.734,11.319,6.021,11.92c2.314,4.853,6.622,13.885,18.707,13.885  c12.086,0,16.394-9.031,18.708-13.884c0.287-0.601,6.021-11.922,6.021-11.922c16.035-31.515,25.973-53.649,25.973-66.602  C360.338,298.79,337.593,276.046,309.635,276.046z M318.322,385.186c0,0-7.652,15.327-8.167,15.939c-0.212,0.027-0.826,0.029-1.04,0  c-0.515-0.612-8.166-15.938-8.166-15.938c-7.187-14.126-24.018-47.205-24.018-58.439c0-18.031,14.67-32.701,32.703-32.701  s32.703,14.67,32.703,32.701C342.338,337.985,325.508,371.063,318.322,385.186z M396.837,222.813  c0,21.288-3.534,42.177-10.505,62.086c-1.298,3.708-4.777,6.029-8.495,6.029c-0.987,0-1.99-0.164-2.974-0.509  c-4.691-1.643-7.163-6.776-5.521-11.468c6.3-17.993,9.494-36.881,9.494-56.139c0-65.567-36.655-124.126-95.66-152.823  c-4.47-2.174-6.331-7.561-4.157-12.03c2.174-4.47,7.559-6.329,12.03-4.157c31.232,15.19,57.641,38.721,76.37,68.048  C386.664,151.984,396.837,186.897,396.837,222.813z M198.918,50.703c0-4.971,4.029-9,9-9h2.147c4.971,0,9,4.029,9,9s-4.029,9-9,9  h-2.147C202.948,59.703,198.918,55.674,198.918,50.703z M65.246,245.748c2.314,4.853,6.622,13.885,18.708,13.885  c12.087,0,16.394-9.031,18.708-13.883c0.287-0.602,6.023-11.923,6.023-11.923c16.034-31.513,25.972-53.646,25.972-66.601  c0-27.957-22.745-50.701-50.703-50.701c-27.958,0-50.703,22.744-50.703,50.701c0,12.955,9.939,35.089,25.976,66.601  C59.228,233.827,64.96,245.147,65.246,245.748z M83.955,134.525c18.032,0,32.703,14.67,32.703,32.701  c0,11.24-16.829,44.314-24.014,58.438c0,0-7.654,15.327-8.168,15.939c-0.214,0.029-0.827,0.029-1.041,0  c-0.515-0.612-8.164-15.939-8.164-15.939c-7.187-14.123-24.019-47.197-24.019-58.438C51.252,149.195,65.922,134.525,83.955,134.525z   M319.708,326.748c0,4.971-4.029,9-9,9h-2.147c-4.971,0-9-4.029-9-9s4.029-9,9-9h2.147  C315.679,317.748,319.708,321.777,319.708,326.748z M261.486,394.067c1.212,4.82-1.712,9.711-6.533,10.924  c-14.944,3.758-30.407,5.664-45.958,5.664c-95.611,0-175.84-71.544-186.619-166.418c-0.561-4.938,2.988-9.396,7.926-9.958  c4.937-0.564,9.397,2.987,9.958,7.927c9.745,85.77,82.285,150.449,168.734,150.449c14.072,0,28.058-1.723,41.568-5.121  C255.384,386.328,260.274,389.247,261.486,394.067z M73.88,167.228c0-4.971,4.029-9,9-9h2.147c4.971,0,9,4.029,9,9s-4.029,9-9,9  H82.88C77.91,176.228,73.88,172.198,73.88,167.228z M81.373,97.206c-3.364-3.659-3.124-9.353,0.535-12.717  c13.476-12.388,28.626-22.714,45.03-30.692c4.469-2.174,9.855-0.313,12.03,4.157c2.174,4.47,0.313,9.856-4.157,12.03  c-14.833,7.214-28.533,16.553-40.722,27.757c-1.729,1.589-3.912,2.374-6.088,2.374C85.571,100.115,83.148,99.137,81.373,97.206z" fill="#5f2167"/>
<g>
</g>
<g>
</g>
<g>
</g>
<g>
</g>
<g>
</g>
<g>
</g>
<g>
</g>
<g>
</g>
<g>
</g>
<g>
</g>
<g>
</g>
<g>
</g>
<g>
</g>
<g>
</g>
<g>
</g>
</svg>
